<svg width="24" height="22" viewBox="0 0 24 22" fill="none" xmlns="http://www.w3.org/2000/svg">
<path d="M17.6836 8.27973L12.9054 1.16976C12.8034 1.0262 12.6675 0.909655 12.5097 0.830303C12.3518 0.750951 12.1768 0.711209 12 0.71455C11.6509 0.71455 11.3018 0.866287 11.0945 1.1806L6.31632 8.27973H1.09086C0.490863 8.27973 -4.57764e-05 8.76746 -4.57764e-05 9.36357C-4.57764e-05 9.46112 0.0108633 9.55866 0.0435905 9.65621L2.8145 19.7034C3.06541 20.6138 3.90541 21.2858 4.90905 21.2858H19.0909C20.0945 21.2858 20.9345 20.6138 21.1963 19.7034L23.9672 9.65621L24 9.36357C24 8.76746 23.509 8.27973 22.909 8.27973H17.6836ZM8.72723 8.27973L12 3.51085L15.2727 8.27973H8.72723ZM12 16.9504C10.8 16.9504 9.81814 15.975 9.81814 14.7828C9.81814 13.5905 10.8 12.6151 12 12.6151C13.2 12.6151 14.1818 13.5905 14.1818 14.7828C14.1818 15.975 13.2 16.9504 12 16.9504Z" fill="white"/>
</svg>
